<svg width="201" height="184" viewBox="0 0 201 184" fill="none" xmlns="http://www.w3.org/2000/svg">
<path d="M62.8125 20.8306L16.75 45.4329V164.834L62.8125 147.453V20.8306ZM79.5625 144.977L100.5 156.293V124.584C100.493 117.144 102.383 109.805 106.017 103.151C109.652 96.4961 114.932 90.7094 121.438 86.2503V39.0236L79.5625 16.3916V144.977ZM184.25 19.1669V86.2503C175.198 80.0147 164.172 76.6503 152.844 76.6669C147.752 76.6669 142.836 77.3339 138.188 78.5683V36.5549L184.25 19.1669Z" fill="#3364CE"/>
<path d="M192.625 124.583C192.625 131.866 190.297 138.636 186.277 144.325L200.28 157.182L188.421 168.007L174.435 155.173C167.008 159.566 158.194 161.569 149.385 160.865C140.576 160.162 132.274 156.791 125.791 151.287C119.308 145.782 115.013 138.457 113.585 130.469C112.157 122.481 113.676 114.285 117.904 107.175C122.132 100.066 128.826 94.4486 136.93 91.2106C145.034 87.9726 154.086 87.2985 162.655 89.2949C171.224 91.2912 178.823 95.8442 184.25 102.235C189.677 108.625 192.624 116.489 192.625 124.583ZM175.875 124.583C175.877 119.708 174.034 114.983 170.658 111.212C167.283 107.441 162.584 104.858 157.363 103.901C152.141 102.945 146.718 103.675 142.017 105.966C137.317 108.258 133.629 111.97 131.582 116.47C129.535 120.971 129.255 125.981 130.789 130.65C132.324 135.318 135.578 139.355 139.998 142.074C144.418 144.793 149.731 146.026 155.033 145.563C160.334 145.099 165.296 142.969 169.075 139.533L169.142 139.479C171.28 137.525 172.976 135.202 174.131 132.646C175.287 130.09 175.88 127.35 175.875 124.583Z" fill="#3364CE"/>
</svg>
